<svg width="32" height="32" viewBox="0 0 32 32" fill="none" xmlns="http://www.w3.org/2000/svg">
  <!-- Background circle with gradient -->
  <circle cx="16" cy="16" r="16" fill="url(#gradient)" />
  
  <!-- Money clip shape -->
  <path d="M12 8C11.4477 8 11 8.44772 11 9V23C11 23.5523 11.4477 24 12 24H20C20.5523 24 21 23.5523 21 23V9C21 8.44772 20.5523 8 20 8H12Z" fill="white" fill-opacity="0.9"/>
  
  <!-- Inner clip mechanism -->
  <rect x="13" y="10" width="6" height="1" fill="url(#clipGradient)" rx="0.5"/>
  <rect x="13" y="12" width="6" height="1" fill="url(#clipGradient)" rx="0.5"/>
  
  <!-- Dollar sign -->
  <path d="M16 14V18M14.5 15.5H17.5C17.7761 15.5 18 15.7239 18 16C18 16.2761 17.7761 16.5 17.5 16.5H14.5C14.2239 16.5 14 16.7239 14 17C14 17.2761 14.2239 17.5 14.5 17.5H17.5" stroke="url(#dollarGradient)" stroke-width="1.5" stroke-linecap="round"/>
  
  <!-- Athletic accent (small trophy icon) -->
  <circle cx="24" cy="8" r="6" fill="url(#trophyBg)"/>
  <path d="M22 6H26L25 9H23L22 6Z" fill="#FFD700"/>
  <rect x="23.5" y="9" width="1" height="2" fill="#FFD700"/>
  <rect x="23" y="11" width="2" height="1" fill="#FFD700"/>
  
  <defs>
    <!-- Main gradient -->
    <linearGradient id="gradient" x1="0%" y1="0%" x2="100%" y2="100%">
      <stop offset="0%" style="stop-color:#0a2540;stop-opacity:1" />
      <stop offset="100%" style="stop-color:#1e3a8a;stop-opacity:1" />
    </linearGradient>
    
    <!-- Clip gradient -->
    <linearGradient id="clipGradient" x1="0%" y1="0%" x2="100%" y2="0%">
      <stop offset="0%" style="stop-color:#059669;stop-opacity:1" />
      <stop offset="100%" style="stop-color:#10b981;stop-opacity:1" />
    </linearGradient>
    
    <!-- Dollar sign gradient -->
    <linearGradient id="dollarGradient" x1="0%" y1="0%" x2="100%" y2="100%">
      <stop offset="0%" style="stop-color:#059669;stop-opacity:1" />
      <stop offset="100%" style="stop-color:#10b981;stop-opacity:1" />
    </linearGradient>
    
    <!-- Trophy background -->
    <radialGradient id="trophyBg" cx="50%" cy="50%" r="50%">
      <stop offset="0%" style="stop-color:#FFC107;stop-opacity:1" />
      <stop offset="100%" style="stop-color:#FF8F00;stop-opacity:1" />
    </radialGradient>
  </defs>
</svg>